<?xml version="1.0" standalone="no"?>
<!DOCTYPE svg PUBLIC "-//W3C//DTD SVG 20010904//EN"
 "http://www.w3.org/TR/2001/REC-SVG-20010904/DTD/svg10.dtd">
<svg version="1.0" xmlns="http://www.w3.org/2000/svg"
 width="1391.000000pt" height="768.000000pt" viewBox="0 0 1391.000000 768.000000"
 preserveAspectRatio="xMidYMid meet">

<g transform="translate(0.000000,768.000000) scale(0.100000,-0.100000)"
fill="#000000" stroke="none">
<path d="M9035 6904 c-16 -2 -70 -9 -120 -15 -522 -64 -1033 -316 -1632 -806
-56 -45 -107 -88 -115 -96 -7 -7 -62 -57 -123 -111 -60 -55 -175 -163 -255
-242 l-145 -143 -120 117 c-382 372 -666 607 -965 799 -435 278 -776 414
-1161 462 -452 57 -910 -37 -1299 -267 -52 -31 -99 -60 -105 -64 -110 -83
-234 -186 -286 -237 -328 -330 -537 -753 -600 -1216 -8 -59 -14 -184 -13 -305
0 -198 4 -233 44 -445 20 -104 82 -281 150 -430 113 -244 341 -538 558 -718
256 -213 574 -366 902 -434 113 -23 148 -26 365 -27 264 -1 317 5 538 60 171
42 228 61 392 131 131 56 164 72 355 180 331 187 720 498 1149 921 l95 93 110
-109 c679 -665 1216 -1030 1736 -1179 47 -13 96 -28 110 -33 81 -31 385 -69
548 -70 249 0 436 31 669 111 507 176 965 599 1187 1098 45 101 49 117 36 141
-11 20 -45 27 -66 12 -5 -4 -16 -23 -24 -42 -33 -86 -202 -386 -230 -410 -3
-3 -28 -34 -55 -70 -247 -324 -652 -593 -1040 -689 -212 -53 -481 -74 -662
-51 -103 12 -131 30 -48 30 56 0 253 34 341 59 94 26 245 88 327 135 179 100
388 292 501 460 71 105 158 272 181 346 9 30 20 64 25 75 33 73 80 356 80 480
0 58 -3 66 -25 81 -23 15 -27 15 -49 1 -13 -9 -27 -28 -31 -44 -3 -15 -22 -64
-41 -108 -145 -332 -404 -577 -719 -680 -87 -28 -251 -55 -334 -55 -181 1
-456 76 -656 178 -324 165 -627 399 -1026 794 l-48 46 352 4 c310 3 357 6 392
21 86 38 116 87 171 275 21 71 31 92 43 90 24 -4 67 -145 116 -375 51 -241 70
-305 104 -358 28 -42 69 -59 109 -44 24 9 57 69 77 138 18 60 59 322 85 536
49 405 78 595 92 595 4 0 10 -10 12 -22 15 -67 28 -151 51 -318 14 -102 29
-214 35 -250 6 -36 14 -103 20 -150 71 -629 110 -828 169 -860 53 -28 92 3
120 93 21 69 62 308 86 502 38 309 87 545 114 545 11 0 53 -133 81 -255 37
-161 81 -274 128 -327 8 -10 31 -22 51 -28 73 -20 128 34 173 174 29 89 48
101 142 98 58 -3 79 1 116 20 72 37 101 92 164 321 26 92 39 77 81 -93 24 -99
44 -197 70 -340 37 -204 83 -340 120 -354 98 -37 143 57 188 389 23 167 35
265 78 625 17 143 43 281 54 282 16 1 62 -319 130 -907 43 -368 87 -621 120
-686 19 -37 60 -54 92 -40 12 6 31 28 42 49 29 56 69 290 111 642 38 312 70
492 93 525 11 14 17 4 40 -72 14 -48 35 -131 47 -183 38 -180 67 -287 91 -334
45 -91 109 -119 170 -75 35 25 59 70 88 162 42 139 39 137 339 137 240 0 252
2 252 46 0 43 -14 45 -287 42 -247 -3 -260 -4 -294 -25 -41 -26 -66 -69 -103
-171 -38 -107 -45 -118 -62 -100 -22 22 -62 146 -95 298 -51 236 -98 368 -138
390 -30 16 -66 12 -94 -10 -50 -39 -98 -252 -142 -625 -9 -71 -20 -168 -26
-215 -10 -87 -35 -253 -45 -302 -3 -16 -9 -28 -14 -28 -16 0 -57 265 -105 680
-80 695 -126 939 -183 969 -33 18 -77 -4 -95 -47 -37 -85 -73 -307 -122 -747
-20 -181 -41 -323 -63 -438 -18 -94 -26 -116 -37 -105 -8 7 -39 140 -60 253
-77 413 -119 541 -185 564 -65 22 -115 -26 -152 -150 -14 -46 -33 -110 -43
-141 -9 -31 -27 -68 -40 -82 -21 -23 -32 -26 -92 -26 -145 0 -189 -33 -247
-183 -22 -57 -43 -96 -49 -94 -32 10 -77 130 -136 360 -39 152 -79 238 -123
261 -45 24 -79 10 -112 -47 -28 -47 -78 -248 -95 -382 -28 -212 -63 -446 -86
-575 -8 -47 -15 -86 -15 -87 0 -2 -4 -3 -9 -3 -13 0 -37 142 -76 445 -142
1119 -152 1166 -247 1165 -27 -1 -50 -17 -65 -45 -26 -49 -69 -298 -99 -565
-36 -339 -93 -671 -119 -698 -13 -14 -33 52 -76 248 -91 420 -130 510 -219
510 -65 0 -114 -73 -155 -230 -17 -66 -55 -133 -83 -147 -9 -4 -197 -9 -417
-11 l-400 -3 -38 39 -38 39 68 74 c160 176 374 380 563 538 152 126 175 144
305 232 261 177 484 280 720 335 101 23 143 27 265 27 129 0 158 -3 260 -30
225 -59 432 -190 579 -368 75 -90 89 -110 142 -210 42 -78 76 -102 105 -73 25
24 11 73 -46 168 -86 143 -215 287 -347 387 -96 72 -283 159 -408 190 -98 24
-129 27 -285 28 -197 0 -296 -17 -483 -82 -100 -34 -316 -137 -369 -174 -14
-11 -29 -19 -33 -19 -4 0 -42 -24 -84 -53 -87 -61 -101 -70 -101 -64 0 20 204
201 346 307 130 98 241 168 374 238 151 79 242 115 403 156 315 80 557 72 846
-29 239 -84 395 -185 598 -391 110 -112 147 -144 167 -144 19 0 29 7 36 26 9
22 5 35 -27 87 -110 185 -314 408 -495 545 -53 40 -101 72 -106 72 -6 0 -12 4
-14 8 -3 7 -95 62 -218 129 -92 50 -352 136 -490 162 -150 28 -421 47 -505 35z
m362 -109 c331 -43 628 -163 894 -362 53 -39 100 -76 103 -82 4 -5 -44 14
-106 44 -472 227 -969 207 -1493 -61 -103 -52 -348 -209 -424 -271 -171 -140
-275 -235 -451 -412 -187 -189 -289 -300 -810 -891 -341 -385 -638 -690 -960
-986 -43 -40 -202 -172 -320 -267 -235 -189 -591 -406 -820 -500 -25 -11 -59
-25 -75 -32 -53 -24 -246 -84 -350 -110 -229 -56 -534 -68 -757 -31 -317 54
-625 194 -883 403 -184 149 -218 193 -74 98 229 -153 505 -241 786 -252 365
-14 719 99 1088 347 337 226 621 499 1165 1120 481 548 882 971 1154 1215 6 6
49 44 96 85 47 41 87 77 90 81 36 39 384 303 520 393 575 383 1111 538 1627
471z m-5137 -14 c-8 -5 -42 -12 -75 -15 -246 -28 -541 -147 -784 -315 -81 -56
-294 -265 -360 -354 -249 -334 -359 -737 -317 -1157 28 -282 89 -468 237 -722
200 -344 539 -602 896 -683 351 -80 785 26 1190 290 132 86 127 76 -33 -69
-146 -132 -493 -368 -614 -418 -8 -4 -53 -22 -99 -42 -86 -36 -197 -70 -336
-102 -120 -28 -396 -26 -522 4 -339 80 -616 242 -848 496 -310 338 -453 800
-401 1293 51 480 250 906 576 1233 259 260 539 417 925 520 60 15 130 27 280
44 66 7 299 5 285 -3z m335 -107 c50 -3 124 -15 165 -26 41 -10 91 -23 110
-28 85 -22 327 -118 415 -165 296 -158 574 -361 885 -644 153 -140 401 -384
398 -392 -2 -4 -62 -69 -134 -145 -72 -77 -181 -194 -244 -262 l-113 -123
-216 215 c-482 479 -839 737 -1223 884 -132 50 -200 68 -323 87 -261 39 -513
2 -732 -109 -324 -163 -557 -452 -656 -811 -38 -137 -50 -237 -46 -381 5 -158
-8 -155 -43 12 -20 95 -23 137 -23 324 1 198 3 224 28 331 81 344 257 631 532
865 218 187 541 329 820 363 154 19 196 20 400 5z m-262 -698 c355 -65 795
-320 1207 -701 228 -211 260 -242 423 -412 l50 -52 -65 -73 c-138 -154 -414
-418 -608 -582 -254 -214 -644 -438 -875 -502 -88 -25 -287 -54 -365 -54 -85
0 -226 22 -316 50 -269 82 -547 324 -682 595 -170 341 -174 724 -11 1084 74
162 260 380 404 473 271 175 532 229 838 174z m3031 -1418 c517 -519 956 -835
1339 -964 188 -63 282 -79 477 -79 157 0 185 3 276 27 304 79 575 274 740 533
49 76 55 56 20 -66 -75 -261 -211 -488 -400 -666 -81 -77 -198 -173 -210 -173
-3 0 -29 -14 -58 -32 -246 -147 -562 -218 -846 -190 -364 36 -694 165 -1053
413 -101 70 -302 227 -392 307 -28 26 -83 74 -122 107 -94 81 -415 395 -415
407 0 5 48 60 108 122 59 63 166 179 237 259 72 80 134 146 139 146 5 1 77
-67 160 -151z"/>
<path d="M7580 2174 c-260 -68 -420 -270 -420 -529 0 -328 264 -563 609 -542
135 9 235 44 338 120 196 145 255 440 136 676 -69 137 -216 248 -371 280 -73
15 -226 13 -292 -5z m333 -147 c80 -37 128 -77 173 -145 143 -214 67 -502
-162 -613 -66 -32 -73 -34 -189 -34 -114 0 -123 2 -187 32 -167 79 -244 210
-236 403 4 112 30 177 104 259 89 99 176 132 334 128 89 -2 114 -7 163 -30z"/>
<path d="M2160 2177 c-3 -3 -4 -244 -2 -535 l2 -530 258 4 c471 8 505 13 592
91 76 69 100 173 65 291 -19 63 -53 104 -114 139 -25 15 -48 28 -50 30 -3 2
14 19 38 39 132 114 116 321 -33 413 -80 50 -112 54 -441 58 -171 3 -312 2
-315 0z m635 -147 c65 -33 95 -77 95 -142 0 -66 -21 -102 -78 -135 l-47 -28
-230 0 -230 0 -3 168 -2 169 222 -4 c214 -3 225 -4 273 -28z m14 -446 c30 -8
69 -30 89 -49 l37 -33 0 -85 c0 -100 -13 -120 -98 -158 -47 -21 -71 -23 -269
-27 -119 -2 -229 -2 -243 2 l-25 6 0 180 0 180 228 0 c178 0 240 -3 281 -16z"/>
<path d="M3329 2176 c-2 -2 -3 -242 -1 -533 l2 -528 363 3 362 3 3 59 3 60
-296 0 -295 0 0 470 0 470 -68 0 c-38 0 -71 -2 -73 -4z"/>
<path d="M4018 2123 c-2 -32 -3 -61 -1 -65 3 -5 87 -8 187 -8 183 0 184 0 188
-22 2 -13 5 -223 6 -468 l2 -445 68 0 67 0 3 467 2 468 188 2 187 3 0 60 0 60
-447 3 -446 2 -4 -57z"/>
<path d="M5410 2173 c0 -8 86 -258 220 -643 40 -113 88 -252 108 -310 l37
-105 79 0 78 0 73 210 c235 675 220 634 229 624 2 -2 18 -47 35 -99 18 -52 43
-124 56 -160 13 -36 61 -168 105 -295 44 -126 85 -241 91 -256 9 -24 13 -25
87 -25 l76 1 19 50 c19 48 113 322 222 645 29 85 69 199 89 254 20 54 36 103
36 108 0 5 -32 8 -72 6 l-71 -3 -42 -120 c-23 -66 -61 -176 -85 -245 -24 -69
-71 -206 -105 -305 -34 -99 -66 -179 -71 -178 -8 2 -87 220 -205 568 -34 99
-70 204 -81 233 l-19 52 -69 0 -69 0 -20 -62 c-10 -35 -60 -178 -109 -318 -49
-140 -107 -306 -128 -367 -22 -62 -42 -113 -45 -113 -4 0 -36 87 -72 193 -36
105 -93 271 -127 367 -34 96 -69 198 -77 225 -9 28 -20 56 -25 63 -11 13 -148
18 -148 5z"/>
<path d="M8550 1647 l0 -535 71 3 70 4 2 163 2 163 176 3 177 2 63 -90 c35
-50 87 -123 116 -163 l52 -72 80 -5 c45 -3 81 -2 81 1 0 4 -54 84 -120 178
-66 94 -120 173 -120 175 0 3 24 18 54 36 94 53 146 129 167 242 26 141 -35
289 -147 354 -102 60 -145 67 -446 72 l-278 4 0 -535z m601 372 c74 -35 108
-80 121 -161 24 -141 -52 -247 -199 -277 -36 -7 -120 -11 -218 -9 l-160 3 -3
238 -2 238 202 -3 c195 -3 205 -4 259 -29z"/>
<path d="M9682 1648 l3 -533 365 3 365 3 3 60 3 59 -295 0 -296 0 -2 468 -3
467 -73 3 -72 3 2 -533z"/>
<path d="M10610 1648 l0 -534 278 4 c182 2 301 9 347 18 184 37 332 166 387
337 24 74 29 246 9 317 -38 136 -137 261 -254 318 -121 60 -155 65 -474 70
l-293 4 0 -534z m662 364 c86 -42 153 -109 192 -192 29 -60 31 -73 31 -175 0
-103 -2 -114 -32 -177 -54 -114 -161 -193 -294 -218 -81 -15 -414 -9 -413 8 1
6 2 188 3 403 l1 391 223 -4 222 -3 67 -33z"/>
<path d="M3354 716 c-2 -6 -3 -128 -2 -271 l3 -260 195 0 c194 0 195 0 198 22
3 22 3 23 -165 25 l-168 3 0 100 0 100 140 0 c137 0 140 0 143 22 3 22 2 22
-140 25 l-143 3 0 95 0 95 155 0 155 0 3 27 3 28 -186 -2 c-127 -1 -188 -5
-191 -12z"/>
<path d="M3880 454 l0 -275 28 3 27 3 2 200 c2 110 4 206 5 214 2 8 28 -17 58
-55 235 -295 295 -364 316 -364 28 0 30 19 26 317 l-4 231 -24 0 -24 0 0 -214
c0 -118 -4 -214 -9 -214 -5 0 -80 89 -167 197 -185 230 -188 233 -214 233 -20
0 -20 -7 -20 -276z"/>
<path d="M4440 698 l0 -29 78 1 c42 1 85 1 94 1 16 -1 18 -22 20 -243 l3 -243
27 -3 28 -3 2 248 3 248 93 0 c81 0 93 2 98 18 3 10 4 21 1 23 -3 3 -104 7
-226 9 l-221 3 0 -30z"/>
<path d="M4980 452 l0 -272 197 2 c195 3 196 3 199 26 l4 22 -170 0 -171 0 3
101 3 101 135 3 c164 3 150 1 150 25 0 18 -8 20 -142 22 l-143 3 0 95 0 95
154 -4 c160 -4 174 0 164 39 -5 17 -19 18 -194 17 l-189 -2 0 -273z"/>
<path d="M5509 704 c-1 -24 -1 -405 1 -496 0 -23 4 -28 25 -28 29 0 29 0 29
100 l1 75 95 3 96 3 52 -73 c77 -109 76 -108 111 -108 l33 0 -66 95 c-36 52
-66 97 -66 100 0 3 5 5 12 5 19 0 77 50 93 80 17 34 20 106 4 147 -14 39 -57
83 -99 101 -24 10 -80 17 -177 20 l-143 5 -1 -29z m315 -57 c54 -36 71 -118
36 -175 -31 -50 -73 -63 -193 -60 l-102 3 -3 127 c-2 111 -1 127 14 130 9 2
62 1 118 -2 76 -4 109 -10 130 -23z"/>
<path d="M6202 722 c-212 -2 -213 -3 -210 -24 2 -18 10 -22 43 -23 22 0 66 -2
98 -3 l57 -2 0 -245 0 -245 25 0 25 0 0 245 0 245 101 0 100 0 -3 27 c-2 14
-7 27 -13 27 -5 1 -106 0 -223 -2z"/>
<path d="M6661 708 c-5 -13 -27 -61 -49 -108 -22 -47 -56 -121 -77 -165 -41
-88 -79 -172 -101 -222 l-14 -33 30 0 c29 0 33 5 62 69 19 44 37 71 50 74 11
3 81 5 156 4 l137 -2 34 -72 c31 -65 38 -73 63 -73 15 0 28 4 28 9 0 7 -20 50
-120 266 -135 290 -126 275 -160 275 -22 0 -33 -6 -39 -22z m65 -85 c8 -21 19
-47 24 -58 42 -91 80 -179 80 -187 0 -8 -238 -10 -252 -2 -6 4 11 48 71 179
16 33 31 70 35 83 11 32 25 27 42 -15z"/>
<path d="M7080 455 l0 -275 30 0 30 0 -2 272 -3 271 -27 4 -28 4 0 -276z"/>
<path d="M7310 454 l0 -274 30 0 30 0 2 216 3 216 173 -216 c140 -175 178
-216 198 -216 l24 0 0 265 c0 146 0 268 0 272 0 4 -12 7 -27 7 l-28 0 3 -217
c2 -132 0 -217 -6 -217 -5 0 -18 12 -28 28 -9 15 -63 83 -118 151 -56 69 -125
154 -154 190 -37 46 -61 67 -78 68 l-24 2 0 -275z"/>
<path d="M7945 718 c-2 -7 -3 -130 -2 -273 l2 -260 27 -3 28 -3 2 213 3 213
30 -49 c17 -27 64 -105 106 -175 50 -84 82 -127 95 -129 15 -2 38 30 111 157
51 87 96 166 99 175 18 46 24 -4 24 -195 l0 -210 27 3 28 3 0 269 0 269 -22 3
c-27 5 -25 7 -160 -220 -98 -164 -108 -178 -120 -160 -8 10 -62 100 -121 199
-83 138 -112 181 -130 183 -12 2 -24 -3 -27 -10z"/>
<path d="M8700 453 l0 -273 195 0 195 0 0 25 0 25 -165 0 -165 0 0 105 0 105
143 -2 c141 -3 142 -3 145 20 3 22 3 22 -143 22 l-146 0 3 98 3 97 158 -4 157
-4 0 33 0 32 -190 -4 -190 -3 0 -272z"/>
<path d="M9227 723 c-2 -4 -5 -128 -6 -275 l-2 -268 30 0 31 0 0 215 c0 118 3
215 8 215 4 -1 59 -67 122 -147 183 -233 228 -283 256 -283 l24 0 0 269 0 269
-22 6 c-13 3 -26 6 -30 6 -4 0 -9 -99 -10 -220 l-3 -221 -107 133 c-58 73
-137 171 -175 218 -62 78 -102 107 -116 83z"/>
<path d="M9782 700 c3 -25 4 -25 98 -25 l95 0 3 -248 2 -247 30 0 30 0 2 246
3 247 93 -2 93 -2 -3 26 -3 27 -223 1 -223 2 3 -25z"/>
</g>
</svg>
